<?xml version="1.0" encoding="UTF-8" standalone="no"?>
<svg
   width="28"
   height="28"
   viewBox="0 0 28 28"
   fill="currentColor"
   version="1.1"
   id="svg22"
   sodipodi:docname="icon.svg"
   inkscape:version="1.2.2 (1:1.2.2+202305151914+b0a8486541)"
   inkscape:export-filename="icon.png"
   inkscape:export-xdpi="877.71429"
   inkscape:export-ydpi="877.71429"
   xmlns:inkscape="http://www.inkscape.org/namespaces/inkscape"
   xmlns:sodipodi="http://sodipodi.sourceforge.net/DTD/sodipodi-0.dtd"
   xmlns="http://www.w3.org/2000/svg"
   xmlns:svg="http://www.w3.org/2000/svg">
  <defs
     id="defs26" />
  <sodipodi:namedview
     id="namedview24"
     pagecolor="#505050"
     bordercolor="#ffffff"
     borderopacity="1"
     inkscape:showpageshadow="0"
     inkscape:pageopacity="0"
     inkscape:pagecheckerboard="1"
     inkscape:deskcolor="#505050"
     showgrid="false"
     inkscape:zoom="11.801802"
     inkscape:cx="33.045802"
     inkscape:cy="11.650763"
     inkscape:window-width="1920"
     inkscape:window-height="1016"
     inkscape:window-x="0"
     inkscape:window-y="27"
     inkscape:window-maximized="1"
     inkscape:current-layer="svg22" />
  <g
     id="g407"
     transform="translate(5.0000173,8.0731536e-5)"
     inkscape:export-filename="icon.png"
     inkscape:export-xdpi="96"
     inkscape:export-ydpi="96">
    <path
       d="M 6.8268,1.85198 C 7.73893,0.276848 9.7832,-0.31116 11.3928,0.538627 13.0024,1.38841 13.5679,3.3542 12.6557,4.92933 L 6.48052,15.5932 C 5.5684,17.1683 3.52412,17.7563 1.9145,16.9065 0.304883,16.0568 -0.260547,14.091 0.651578,12.5158 Z"
       fill="#22d1ee"
       id="path18" />
    <path
       d="m 11.5194,12.4067 c 0.9122,-1.5752 2.9564,-2.1632 4.566,-1.3134 1.6097,0.8498 2.1751,2.8156 1.263,4.3907 L 11.1731,26.1479 C 10.261,27.723 8.21674,28.311 6.60713,27.4612 4.99751,26.6114 4.43208,24.6457 5.3442,23.0705 Z"
       fill="#183bee"
       id="path20" />
  </g>
</svg>
